<svg width="179" height="249" viewBox="0 0 179 249" fill="none" xmlns="http://www.w3.org/2000/svg">
<path d="M177.255 0H0.42018C-2.689 63.7381 15.5455 89.3888 34.9765 99.105C60.2386 105.582 111.962 113.874 146.163 95.2185C180.364 76.5635 181.141 23.9666 177.255 0Z" fill="#4A57C6"/>
<path d="M50.5234 0H126.31L116.593 97.1618H62.1828L50.5234 0Z" fill="#6C87E8"/>
<circle cx="89.3888" cy="159.342" r="89.3888" fill="#A87FED"/>
<circle cx="89.3874" cy="159.348" r="66.07" fill="#7D5DD4"/>
<path d="M86.4953 119.527C86.7947 118.605 88.0981 118.605 88.3974 119.527L97.2564 146.792C97.3903 147.204 97.7742 147.483 98.2074 147.483L126.876 147.483C127.844 147.483 128.247 148.722 127.463 149.292L104.27 166.142C103.92 166.397 103.773 166.848 103.907 167.26L112.766 194.526C113.065 195.447 112.011 196.213 111.227 195.644L88.0342 178.793C87.6837 178.538 87.2091 178.538 86.8586 178.793L63.6655 195.644C62.8818 196.213 61.8274 195.447 62.1267 194.526L70.9857 167.26C71.1195 166.848 70.9729 166.397 70.6224 166.142L47.4293 149.292C46.6456 148.722 47.0484 147.483 48.0171 147.483L76.6853 147.483C77.1185 147.483 77.5025 147.204 77.6364 146.792L86.4953 119.527Z" fill="#BCABFB"/>
</svg>
