<svg width="341" height="240" viewBox="0 0 341 240" fill="none" xmlns="http://www.w3.org/2000/svg">
<path d="M156.209 239.862V199.192L175.88 195.803V224.046H193.237C202.494 224.046 207.122 234.59 208.279 239.862H156.209Z" fill="#FA7325"/>
<path d="M96.629 239.861V200.952V199.808H116.242V223.84H134.702C145.778 223.84 149.316 234.521 149.7 239.861H96.629Z" fill="#F87426"/>
<path d="M297.24 114.195C293.877 134.309 246.367 154.396 204.415 171.068C185.194 177.707 151.367 185.374 138.218 157.759C120.417 120.374 176.406 97.42 229.167 75.2325C270.425 57.8822 287.3 48.7277 299.117 36.0701C299.352 54.3646 301.414 89.2323 297.24 114.195Z" fill="#020202"/>
<path d="M126.51 18.5357C149.037 -14.0042 178.31 3.58682 190.13 16.4499C194.302 18.5358 199.169 49.1289 200.559 65.4684L202.645 73.812L210.989 84.2415C210.989 84.2415 220.375 98.8428 224.547 110.315C243.737 193.751 160.232 206.386 116.08 204.995L2.39894 210.438C38.2068 172.197 111.074 95.5053 116.08 94.671C121.086 93.8366 123.033 88.0656 123.381 85.2844C122.338 72.7691 120.252 46.4868 120.252 41.4806C120.252 35.2229 122.338 25.8364 126.51 18.5357Z" fill="#3F4367"/>
<path d="M33.4831 117.695C40.2194 101.403 82.7299 94.869 120.054 90.0015C136.956 88.6172 165.9 89.584 171.051 115.87C178.024 151.454 128.07 158.547 80.8857 165.702C43.9883 171.297 28.4866 175.328 16.3848 183.441C19.842 167.897 25.123 137.914 33.4831 117.695Z" fill="#070F1F"/>
<path d="M166.101 104.395C168.447 114.623 162.04 135.988 123.901 142.584C85.7617 149.181 57.6963 154.084 48.431 155.711C35.9085 158.184 22.7464 160.924 16.7911 185.031C22.2937 178.642 23.3065 177.721 20.9139 182.807C19.7998 183.668 18.7511 185.616 17.6574 189.451L17.7051 189.355C19.0854 186.575 20.166 184.397 20.9139 182.807C23.9636 180.453 27.5035 186.252 33.7975 183.829C40.6723 181.182 53.1194 175.878 57.7241 174.922L111.295 165.325L139.599 157.797C154.37 152.825 180.483 135.867 166.101 104.395Z" fill="#031869"/>
<path d="M231.234 61.2962C244.584 57.1245 258.351 65.1204 263.565 69.6398C267.737 38.3517 250.007 28.9646 231.234 25.8357C216.215 23.3327 196.389 17.1445 189.088 15.4062C190.131 16.4492 196.399 23.7498 190.559 40.437C184.718 57.1242 190.211 64.0772 193.688 65.4678C200.641 65.8155 217.884 65.468 231.234 61.2962Z" fill="#FF9531"/>
<path d="M244.364 49.2405C258.548 50.0748 262.441 62.6858 263.137 69.6388C260.703 67.2051 254.376 63.4242 244.364 61.7555C234.351 60.0868 218.29 65.467 200.56 65.467H193.259C193.259 65.467 188.044 61.7555 188.044 57.1232C188.044 52.4908 188.044 48.7785 189.087 48.7796C190.13 48.7808 230.18 48.4061 244.364 49.2405Z" fill="#F97526"/>
<path d="M172.287 28.0708C173.426 31.5663 173.341 35.4768 171.757 39.1126C168.322 46.9964 159.146 50.6027 151.262 47.1678C144.107 44.0502 140.475 36.2038 142.432 28.8862L172.287 28.0708Z" fill="#DEE2FA"/>
<path d="M167.094 28.0226C167.453 28.6466 167.748 29.3209 167.961 30.0416C169.422 34.9901 166.596 40.1866 161.647 41.6484C156.699 43.1101 151.502 40.2837 150.04 35.3352C149.338 32.9568 149.627 30.5215 150.665 28.4707L167.094 28.0226Z" fill="#000944"/>
<path d="M123.164 29.5957C145.067 22.0544 168.105 23.1854 176.886 24.6936C169.365 30.2379 167.449 30.2113 123.27 29.5971L123.164 29.5957Z" fill="black"/>
</svg>
