<svg width="213" height="248" viewBox="0 0 213 248" fill="none" xmlns="http://www.w3.org/2000/svg">
<mask id="path-1-outside-1_1108_281" maskUnits="userSpaceOnUse" x="58.5586" y="0" width="144" height="227" fill="black">
<rect fill="white" x="58.5586" width="144" height="227"/>
<path d="M59.5586 5C59.5586 3.89543 60.454 3 61.5586 3H190.443C191.547 3 192.443 3.89543 192.443 5V223.975C192.443 225.08 191.547 225.975 190.443 225.975H61.5586C60.454 225.975 59.5586 225.08 59.5586 223.975V5Z"/>
</mask>
<path d="M59.5586 5C59.5586 3.89543 60.454 3 61.5586 3H190.443C191.547 3 192.443 3.89543 192.443 5V223.975C192.443 225.08 191.547 225.975 190.443 225.975H61.5586C60.454 225.975 59.5586 225.08 59.5586 223.975V5Z" fill="#4E2814"/>
<path d="M58.5586 3C58.5586 1.34315 59.9017 0 61.5586 0H197.443C200.204 0 202.443 2.23858 202.443 5L182.443 6H61.5586C61.0063 6 60.5586 6 60.5586 6L58.5586 3ZM202.443 223.975C202.443 225.632 201.1 226.975 199.443 226.975H61.5586C59.9017 226.975 58.5586 225.632 58.5586 223.975H60.5586C60.5586 224.527 61.0063 224.975 61.5586 224.975H182.443C182.443 224.975 182.443 224.527 182.443 223.975H202.443ZM61.5586 226.975C59.9017 226.975 58.5586 225.632 58.5586 223.975V3C58.5586 1.34315 59.9017 0 61.5586 0V6C61.0063 6 60.5586 6 60.5586 6V223.975C60.5586 224.527 61.0063 224.975 61.5586 224.975V226.975ZM197.443 0C200.204 0 202.443 2.23858 202.443 5V223.975C202.443 225.632 201.1 226.975 199.443 226.975L182.443 224.975C182.443 224.975 182.443 224.527 182.443 223.975V6L197.443 0Z" fill="#4C2713" mask="url(#path-1-outside-1_1108_281)"/>
<path d="M185.938 12.0098H65.3494C63.7934 12.0098 62.8334 13.7085 63.6361 15.0415L184.225 215.304C185.27 217.041 187.938 216.3 187.938 214.273V14.0098C187.938 12.9052 187.043 12.0098 185.938 12.0098Z" fill="#24150D" fill-opacity="0.37"/>
<path d="M185.939 12.0098H155.558C153.646 12.0098 152.824 14.4367 154.343 15.5985L184.724 38.8309C186.04 39.8373 187.939 38.8989 187.939 37.2422V14.0098C187.939 12.9052 187.044 12.0098 185.939 12.0098Z" fill="#321D12"/>
<rect x="84.334" y="68.3174" width="81.0819" height="29.2796" rx="8" fill="#2D190E"/>
<rect x="197.698" y="3.75" width="14.2659" height="219.223" rx="4.25" fill="#D9D9D9" stroke="#331708" stroke-width="1.5"/>
<mask id="path-7-outside-2_1108_281" maskUnits="userSpaceOnUse" x="0" y="20.2705" width="147" height="227" fill="black">
<rect fill="white" y="20.2705" width="147" height="227"/>
<path d="M1 25.2705C1 24.1659 1.89543 23.2705 3 23.2705H134.136C135.241 23.2705 136.136 24.1659 136.136 25.2705V244.246C136.136 245.35 135.241 246.246 134.136 246.246H3C1.89543 246.246 1 245.35 1 244.246V25.2705Z"/>
</mask>
<path d="M1 25.2705C1 24.1659 1.89543 23.2705 3 23.2705H134.136C135.241 23.2705 136.136 24.1659 136.136 25.2705V244.246C136.136 245.35 135.241 246.246 134.136 246.246H3C1.89543 246.246 1 245.35 1 244.246V25.2705Z" fill="#72452D"/>
<path d="M0 23.2705C0 21.6137 1.34315 20.2705 3 20.2705H141.136C143.898 20.2705 146.136 22.5091 146.136 25.2705L126.136 26.2705H3C2.44772 26.2705 2 26.2705 2 26.2705L0 23.2705ZM146.136 244.246C146.136 245.903 144.793 247.246 143.136 247.246H3C1.34315 247.246 0 245.903 0 244.246H2C2 244.798 2.44772 245.246 3 245.246H126.136C126.136 245.246 126.136 244.798 126.136 244.246H146.136ZM3 247.246C1.34315 247.246 0 245.903 0 244.246V23.2705C0 21.6137 1.34315 20.2705 3 20.2705V26.2705C2.44772 26.2705 2 26.2705 2 26.2705V244.246C2 244.798 2.44772 245.246 3 245.246V247.246ZM141.136 20.2705C143.898 20.2705 146.136 22.5091 146.136 25.2705V244.246C146.136 245.903 144.793 247.246 143.136 247.246L126.136 245.246C126.136 245.246 126.136 244.798 126.136 244.246V26.2705L141.136 20.2705Z" fill="#4C2713" mask="url(#path-7-outside-2_1108_281)"/>
<path d="M127.38 32.2803H9.01125C7.46233 32.2803 6.5013 33.9651 7.28977 35.2984L125.658 235.449C126.694 237.201 129.38 236.466 129.38 234.431V34.2803C129.38 33.1757 128.485 32.2803 127.38 32.2803Z" fill="#452718" fill-opacity="0.37"/>
<path d="M127.379 32.2803H98.9759C97.093 32.2803 96.2533 34.6451 97.7147 35.8325L126.118 58.9101C127.425 59.9721 129.379 59.042 129.379 57.3579V34.2803C129.379 33.1757 128.484 32.2803 127.379 32.2803Z" fill="#533525"/>
<rect x="28.0264" y="88.5879" width="81.0819" height="29.2796" rx="8" fill="#553321"/>
<rect x="139.14" y="24.0205" width="14.2659" height="219.223" rx="4.25" fill="#D9D9D9" stroke="#61402F" stroke-width="1.5"/>
</svg>
