<svg width="635" height="538" viewBox="0 0 635 538" fill="none" xmlns="http://www.w3.org/2000/svg">
<g opacity="0.95">
<path d="M367.824 537.566V462.803L332.519 456.572V508.491H301.368C284.754 508.491 276.447 527.874 274.37 537.566H367.824Z" fill="#FA7325"/>
<path d="M168.423 268.817C187.167 305.053 275.412 315.233 352.619 322.199C387.326 323.493 445.719 318.136 447.962 257.923C450.999 176.409 307.98 200.952 210.063 189.872C133.494 181.208 130.835 125.002 103.762 107.914C115.623 142.811 145.161 223.848 168.423 268.817Z" fill="black"/>
<path d="M396.899 82.7576C352.041 17.963 293.753 52.9908 270.217 78.6041C261.91 82.7576 252.218 143.676 249.449 176.211L245.296 192.825L228.682 213.593C228.682 213.593 209.991 242.667 201.684 265.512C163.472 431.652 329.75 467.649 417.666 464.88H634.459C598.961 426.969 597.813 355.22 551.515 307.443C504.817 259.254 422.672 235.195 417.666 234.36C407.698 232.699 403.821 221.208 403.129 215.67C405.206 190.749 409.359 138.415 409.359 128.446C409.359 115.986 405.206 97.2949 396.899 82.7576Z" fill="#40446A"/>
<path d="M475.815 537.565V466.956V464.879H440.51V508.491H407.282C387.345 508.491 380.976 527.874 380.284 537.565H475.815Z" fill="#F87426"/>
<path d="M88.8375 313.825C97.4291 353.707 197.068 405.548 265.558 396.775C316.649 384.1 393.428 347.454 411.374 289.934C435.669 212.066 288.648 261.316 197.058 224.96C125.437 196.531 90.2556 165.186 68.6084 141.599C70.9086 178.385 78.1747 264.331 88.8375 313.825Z" fill="#050E1F"/>
<path d="M280.232 308.054C354.878 337.323 368.75 330.09 390.029 329.741C434.092 263.131 412.752 255.174 378.559 242.425L378.193 242.289L263.245 239.58L156.054 206.904C147.083 202.985 123.527 185.839 110.445 177.048C94.0916 166.06 76.5042 143.956 71.6069 138.292C67.6037 137.184 71.9473 144.85 71.3935 146.852C77.1486 207.053 108.112 239.609 132.543 249.959C150.67 257.128 205.587 278.785 280.232 308.054Z" fill="#01176C"/>
<path d="M296.018 98.859C293.737 105.852 293.907 113.675 297.076 120.949C303.948 136.721 322.305 143.936 338.077 137.064C352.393 130.827 359.66 115.128 355.741 100.488L296.018 98.859Z" fill="#DEE2FA"/>
<path d="M188.373 167.905C161.791 159.598 134.378 175.52 123.994 184.519C115.687 122.217 150.992 103.525 188.373 97.2948C218.278 92.3106 257.757 79.9886 272.295 76.5273C270.218 78.6041 257.737 93.1413 269.366 126.369C280.996 159.597 270.059 173.442 263.136 176.211C249.291 176.904 214.955 176.212 188.373 167.905Z" fill="#FF9531"/>
<path d="M162.226 143.897C133.982 145.558 126.229 170.67 124.845 184.515C129.69 179.669 142.289 172.14 162.226 168.817C182.163 165.495 214.145 176.208 249.45 176.208H263.987C263.987 176.208 274.371 168.817 274.371 159.593C274.371 150.369 274.371 142.977 272.294 142.979C270.217 142.982 190.47 142.236 162.226 143.897Z" fill="#F97526"/>
<path d="M306.402 98.7607C305.684 100.009 305.099 101.359 304.673 102.801C301.749 112.7 307.404 123.097 317.303 126.022C327.203 128.946 337.599 123.291 340.523 113.391C341.929 108.633 341.352 103.761 339.276 99.6585L306.402 98.7607Z" fill="#000944"/>
<path d="M394.29 101.907C350.471 86.8202 304.383 89.0832 286.816 92.1005C301.862 103.192 305.696 103.139 394.077 101.91L394.29 101.907Z" fill="black"/>
</g>
<g opacity="0.95" filter="url(#filter0_d_1096_470)">
<path d="M72.5196 20.3996L66.9905 67.5916L20.3996 76.9162L63.5733 96.7579L58.0441 143.95L90.2561 109.021L133.43 128.862L110.164 87.4333L142.376 52.5041L95.7852 61.8287L72.5196 20.3996Z" fill="#FFE359"/>
</g>
<defs>
<filter id="filter0_d_1096_470" x="-0.000585556" y="-0.000585556" width="162.777" height="164.351" filterUnits="userSpaceOnUse" color-interpolation-filters="sRGB">
<feFlood flood-opacity="0" result="BackgroundImageFix"/>
<feColorMatrix in="SourceAlpha" type="matrix" values="0 0 0 0 0 0 0 0 0 0 0 0 0 0 0 0 0 0 127 0" result="hardAlpha"/>
<feOffset/>
<feGaussianBlur stdDeviation="10.2"/>
<feComposite in2="hardAlpha" operator="out"/>
<feColorMatrix type="matrix" values="0 0 0 0 1 0 0 0 0 0.890196 0 0 0 0 0.34902 0 0 0 1 0"/>
<feBlend mode="normal" in2="BackgroundImageFix" result="effect1_dropShadow_1096_470"/>
<feBlend mode="normal" in="SourceGraphic" in2="effect1_dropShadow_1096_470" result="shape"/>
</filter>
</defs>
</svg>
