<svg width="1619" height="1000" viewBox="0 0 1619 1000" fill="none" xmlns="http://www.w3.org/2000/svg">
<path d="M635.479 516.557V485.303L650.238 482.698V504.403H663.261C670.206 504.403 673.679 512.506 674.547 516.557H635.479Z" fill="#FA7325"/>
<path d="M623.326 326.429C642.078 299.343 666.445 313.986 676.284 324.693C679.757 326.429 683.808 351.896 684.966 365.497L686.702 372.442L693.647 381.124C693.647 381.124 701.461 393.278 704.933 402.828C720.908 472.282 651.396 487.33 614.644 486.172H520.014C549.821 454.339 610.477 390.5 614.644 389.806C618.811 389.111 620.432 384.307 620.721 381.992C619.853 371.574 618.117 349.696 618.117 345.529C618.117 340.32 619.853 332.507 623.326 326.429Z" fill="white"/>
<path d="M590.338 516.559V487.041V486.173H605.097V504.404H618.987C627.322 504.404 629.984 512.507 630.273 516.559H590.338Z" fill="#F87426"/>
<path d="M538.839 412.923C547.234 395.014 584.256 391.542 616.618 389.481C631.137 389.481 655.448 393.278 655.447 423.664C655.447 464.799 612.039 468.214 570.961 471.958C538.84 474.886 520.897 484.691 509.321 492.794C514.82 475.431 528.421 435.148 538.839 412.923Z" fill="#1C1A86"/>
<path d="M612.576 447.972C645.914 444.499 654.87 423.663 654.581 413.245C661.526 445.888 636.639 460.705 623.327 464.467L598.15 469.676L551.269 474.885C547.218 475.464 535.816 479.747 529.565 481.83C521.752 484.435 512.202 491.38 509.597 493.117C507.861 493.117 510.465 490.512 510.465 489.644C519.494 466.03 535.599 456.364 546.595 454.917C554.698 454.049 579.238 451.445 612.576 447.972Z" fill="#2E3CE0"/>
<circle cx="13.0225" cy="13.0225" r="13.0225" transform="matrix(-1 0 0 1 661.525 325.562)" fill="#DEE2FA"/>
<circle cx="7.8135" cy="7.8135" r="7.8135" transform="matrix(-1 0 0 1 656.316 330.77)" fill="#000944"/>
<path d="M710.498 362.024C721.611 358.551 733.071 365.207 737.412 368.969C740.884 342.924 726.125 335.11 710.498 332.506C697.997 330.422 681.493 325.271 675.416 323.824C676.284 324.692 681.502 330.769 676.64 344.66C671.778 358.551 676.351 364.339 679.244 365.496C685.032 365.786 699.386 365.496 710.498 362.024Z" fill="#FF9531"/>
<path d="M721.43 351.988C733.237 352.683 736.478 363.18 737.057 368.968C735.031 366.942 729.764 363.795 721.43 362.406C713.095 361.017 699.725 365.495 684.967 365.495H678.889C678.889 365.495 674.549 362.406 674.549 358.55C674.549 354.694 674.549 351.604 675.417 351.605C676.285 351.606 709.623 351.294 721.43 351.988Z" fill="#F97526"/>
<path d="M262.5 814.766C244.531 814.766 226.562 813.073 208.594 809.688C190.885 806.302 173.958 800.443 157.812 792.109C141.927 783.776 127.083 772.578 113.281 758.516C99.4792 744.193 87.5 726.224 77.3438 704.609C67.1875 682.734 59.2448 656.823 53.5156 626.875C47.7865 596.927 44.9219 561.901 44.9219 521.797C44.9219 483.255 48.1771 449.531 54.6875 420.625C61.1979 391.458 69.9219 366.328 80.8594 345.234C91.7969 324.141 104.557 306.823 119.141 293.281C133.724 279.479 149.089 268.542 165.234 260.469C181.38 252.396 197.786 246.797 214.453 243.672C231.12 240.286 247.135 238.594 262.5 238.594C288.542 238.594 311.198 239.896 330.469 242.5C349.74 245.104 365.885 247.969 378.906 251.094C394.01 254.74 406.901 258.906 417.578 263.594V330.781C406.901 330 395.443 329.219 383.203 328.438C372.786 327.917 360.807 327.396 347.266 326.875C333.984 326.094 320.052 325.703 305.469 325.703C292.188 325.703 278.906 326.224 265.625 327.266C252.604 328.307 239.974 331.042 227.734 335.469C215.755 339.635 204.557 345.885 194.141 354.219C183.724 362.552 174.609 374.01 166.797 388.594C159.245 402.917 153.255 420.885 148.828 442.5C144.661 464.115 142.578 490.286 142.578 521.016C142.578 553.307 144.792 580.911 149.219 603.828C153.646 626.745 159.766 645.885 167.578 661.25C175.391 676.615 184.505 688.724 194.922 697.578C205.339 706.432 216.667 713.203 228.906 717.891C241.146 722.318 253.906 725.182 267.188 726.484C280.469 727.526 293.75 728.047 307.031 728.047C324.219 728.047 339.844 727.786 353.906 727.266C367.969 726.745 379.948 726.224 389.844 725.703C401.562 724.922 412.109 724.141 421.484 723.359V790.547C410.026 795.234 396.484 799.271 380.859 802.656C367.318 805.781 350.651 808.516 330.859 810.859C311.328 813.464 288.542 814.766 262.5 814.766ZM494.182 663.203C494.182 639.212 496.778 617.996 501.97 599.556C507.162 580.936 515.218 565.27 526.14 552.559C537.24 539.847 551.205 530.179 568.034 523.555C584.864 516.93 605.005 513.618 628.459 513.618C651.913 513.618 672.054 516.93 688.884 523.555C705.892 530.179 719.857 539.847 730.778 552.559C741.7 565.27 749.756 580.936 754.948 599.556C760.14 617.996 762.736 639.212 762.736 663.203C762.736 687.194 760.14 708.589 754.948 727.388C749.756 746.007 741.7 761.673 730.778 774.385C719.857 787.096 705.892 796.764 688.884 803.389C672.054 810.013 651.913 813.325 628.459 813.325C605.005 813.325 584.864 810.013 568.034 803.389C551.205 796.764 537.24 787.096 526.14 774.385C515.218 761.673 507.162 746.007 501.97 727.388C496.778 708.589 494.182 687.194 494.182 663.203ZM628.459 759.346C642.603 759.346 654.061 757.287 662.834 753.169C671.607 748.872 678.41 742.695 683.244 734.639C688.078 726.403 691.301 716.377 692.912 704.561C694.702 692.565 695.598 678.779 695.598 663.203C695.598 647.806 694.702 634.199 692.912 622.383C691.301 610.387 688.078 600.361 683.244 592.305C678.41 584.069 671.607 577.892 662.834 573.774C654.061 569.478 642.603 567.329 628.459 567.329C614.494 567.329 603.125 569.478 594.353 573.774C585.58 577.892 578.687 584.069 573.674 592.305C568.84 600.361 565.528 610.387 563.737 622.383C562.126 634.199 561.32 647.806 561.32 663.203C561.32 678.779 562.126 692.565 563.737 704.561C565.528 716.377 568.84 726.403 573.674 734.639C578.687 742.695 585.58 748.872 594.353 753.169C603.125 757.287 614.494 759.346 628.459 759.346ZM822.087 724.702C822.087 708.589 824.414 694.982 829.069 683.882C833.903 672.782 840.349 663.83 848.405 657.026C856.641 650.223 866.219 645.299 877.141 642.256C888.241 639.212 900.147 637.69 912.858 637.69C925.749 637.69 937.386 638.407 947.771 639.839C958.334 641.271 967.465 642.882 975.163 644.673C983.936 646.642 991.903 648.88 999.064 651.387V625.068C999.064 618.444 998.796 612.894 998.259 608.418C997.901 603.763 997.185 599.735 996.11 596.333C995.036 592.931 993.514 590.067 991.545 587.739C989.755 585.412 987.517 583.174 984.831 581.025C979.102 576.908 971.224 573.953 961.198 572.163C951.172 570.373 938.103 569.478 921.989 569.478C911.784 569.478 901.848 569.836 892.18 570.552C882.691 571.089 874.187 571.805 866.667 572.7C857.894 573.595 849.569 574.58 841.691 575.654V531.074C848.853 528.21 857.715 525.614 868.278 523.286C877.23 521.317 888.42 519.526 901.848 517.915C915.275 516.125 931.21 515.229 949.65 515.229C962.004 515.229 972.925 515.767 982.414 516.841C992.082 517.736 1000.59 519.347 1007.93 521.675C1015.27 524.002 1021.71 527.046 1027.26 530.806C1032.99 534.565 1038.09 539.22 1042.57 544.771C1046.33 549.425 1049.46 554.349 1051.97 559.541C1054.48 564.733 1056.54 570.82 1058.15 577.803C1059.76 584.785 1060.83 592.842 1061.37 601.973C1062.09 610.924 1062.44 621.398 1062.44 633.394V805H1008.46L1003.63 784.053C995.752 789.603 987.069 794.526 977.58 798.823C969.344 802.404 959.676 805.716 948.576 808.76C937.655 811.803 925.57 813.325 912.321 813.325C896.208 813.325 882.422 811.714 870.964 808.491C859.506 805.269 850.106 800.166 842.766 793.184C835.604 786.201 830.323 777.07 826.921 765.791C823.698 754.512 822.087 740.815 822.087 724.702ZM887.346 724.702C887.346 732.58 888.33 738.846 890.3 743.501C892.269 748.156 895.134 751.737 898.894 754.243C902.653 756.571 907.219 758.092 912.59 758.809C918.14 759.525 924.406 759.883 931.389 759.883C940.52 759.883 949.113 759.077 957.17 757.466C965.406 755.675 972.657 753.796 978.923 751.826C986.084 749.499 992.798 746.813 999.064 743.77V694.624C993.335 693.55 987.159 692.565 980.534 691.67C974.805 690.775 968.27 690.059 960.93 689.521C953.768 688.805 946.159 688.447 938.103 688.447C929.151 688.447 921.452 688.895 915.007 689.79C908.741 690.506 903.549 692.207 899.431 694.893C895.313 697.399 892.269 701.069 890.3 705.903C888.33 710.558 887.346 716.825 887.346 724.702ZM1139.79 750.483C1147.66 752.274 1156.44 753.885 1166.11 755.317C1174.34 756.571 1184.01 757.645 1195.11 758.54C1206.39 759.435 1218.74 759.883 1232.17 759.883C1246.85 759.883 1258.49 759.346 1267.08 758.271C1275.68 757.197 1282.12 755.407 1286.42 752.9C1290.89 750.215 1293.76 746.634 1295.01 742.158C1296.26 737.682 1296.89 732.043 1296.89 725.239C1296.89 721.659 1296.62 718.436 1296.09 715.571C1295.73 712.528 1294.65 709.842 1292.86 707.515C1291.25 705.008 1288.75 702.949 1285.34 701.338C1282.12 699.548 1277.73 698.205 1272.18 697.31L1212.83 686.299C1199.23 683.971 1187.77 680.838 1178.46 676.899C1169.15 672.961 1161.63 667.769 1155.9 661.323C1150.35 654.699 1146.32 646.642 1143.82 637.153C1141.49 627.485 1140.32 615.758 1140.32 601.973C1140.32 572.253 1150.17 550.142 1169.87 535.64C1189.74 520.959 1218.03 513.618 1254.73 513.618C1267.62 513.618 1279.44 514.424 1290.18 516.035C1301.1 517.467 1310.59 519.168 1318.64 521.138C1327.95 523.286 1336.46 525.703 1344.16 528.389V574.043C1335.56 572.611 1326.61 571.357 1317.3 570.283C1309.25 569.388 1300.2 568.493 1290.18 567.598C1280.33 566.702 1270.3 566.255 1260.1 566.255C1248.46 566.255 1238.79 566.792 1231.1 567.866C1223.4 568.761 1217.31 570.373 1212.83 572.7C1208.36 575.028 1205.22 578.071 1203.43 581.831C1201.64 585.412 1200.75 589.977 1200.75 595.527C1200.75 599.824 1201.11 603.674 1201.82 607.075C1202.54 610.477 1204.06 613.521 1206.39 616.206C1208.72 618.892 1211.94 621.219 1216.06 623.188C1220.17 625.158 1225.72 626.769 1232.71 628.022L1294.21 639.57C1306.2 641.898 1316.32 644.941 1324.55 648.701C1332.97 652.461 1339.77 657.563 1344.96 664.009C1350.15 670.454 1353.91 678.69 1356.24 688.716C1358.57 698.563 1359.73 710.737 1359.73 725.239C1359.73 739.025 1358.3 751.379 1355.44 762.3C1352.75 773.221 1347.2 782.441 1338.79 789.961C1330.37 797.48 1318.47 803.21 1303.07 807.148C1287.67 811.266 1267.35 813.325 1242.11 813.325C1228.14 813.325 1214.98 812.34 1202.63 810.371C1190.28 808.581 1179.44 806.522 1170.13 804.194C1159.21 801.509 1149.1 798.465 1139.79 795.063V750.483ZM1451.31 574.58H1409.42V521.675H1451.31V461.787L1514.96 447.554V521.675H1586.39V574.58H1514.96V726.851C1514.96 733.475 1515.41 738.936 1516.3 743.232C1517.38 747.529 1519.17 751.021 1521.67 753.706C1524.36 756.213 1528.03 758.003 1532.68 759.077C1537.52 759.972 1543.69 760.42 1551.21 760.42C1558.2 760.42 1564.46 760.33 1570.01 760.151C1575.74 759.793 1580.57 759.435 1584.51 759.077C1589.17 758.719 1593.29 758.271 1596.87 757.734V800.166C1590.6 802.673 1583.89 804.91 1576.73 806.88C1570.46 808.491 1563.12 809.924 1554.7 811.177C1546.29 812.609 1537.07 813.325 1527.04 813.325C1513.08 813.325 1501.26 811.982 1491.59 809.297C1482.1 806.611 1474.32 802.583 1468.23 797.212C1462.32 791.662 1458.02 784.769 1455.34 776.533C1452.65 768.118 1451.31 758.361 1451.31 747.261V574.58Z" fill="white"/>
</svg>
