<svg width="976" height="877" viewBox="0 0 976 877" fill="none" xmlns="http://www.w3.org/2000/svg">
<path d="M539.09 876.134V742.923L601.996 731.822V824.33H657.501C687.103 824.33 701.905 858.866 705.605 876.134H539.09Z" fill="#FA7325"/>
<path d="M487.287 65.7638C567.214 -49.6863 671.07 12.7259 713.007 58.3632C727.808 65.7639 745.076 174.307 750.01 232.278L757.411 261.881L787.013 298.884C787.013 298.884 820.316 350.689 835.117 391.392C903.203 687.418 606.931 751.557 450.284 746.624H46.9482C173.993 610.945 432.522 338.848 450.284 335.888C468.045 332.927 474.952 312.452 476.186 302.585C472.486 258.181 465.085 164.933 465.085 147.171C465.085 124.969 472.486 91.6662 487.287 65.7638Z" fill="#40446A"/>
<path d="M346.674 876.135V750.324V746.624H409.579V824.33H468.785C504.308 824.33 515.655 858.867 516.889 876.135H346.674Z" fill="#F87426"/>
<path d="M127.187 434.419C162.966 358.09 320.765 343.289 458.699 334.507C520.583 334.507 624.199 350.689 624.197 480.2C624.194 655.527 439.18 670.082 264.099 686.04C127.189 698.52 50.7133 740.312 1.37567 774.848C24.8111 700.842 82.7828 529.148 127.187 434.419Z" fill="#050E1F"/>
<path d="M441.463 583.81C583.555 569.009 621.731 480.201 620.498 435.797C650.1 574.929 544.024 638.081 487.286 654.116L379.976 676.318L180.16 698.52C162.891 700.987 114.294 719.242 87.6514 728.123C54.3485 739.224 13.645 768.826 2.54401 776.227C-4.85669 776.227 6.24432 765.126 6.24432 761.425C44.7277 660.777 113.368 619.58 160.238 613.412C194.775 609.712 299.37 598.611 441.463 583.81Z" fill="#01176C"/>
<path d="M650.085 116.036C650.451 129.136 646.207 142.416 637.12 153.245C617.416 176.728 582.406 179.79 558.923 160.086C537.61 142.202 533.118 111.709 547.202 88.6709L650.085 116.036Z" fill="#DEE2FA"/>
<path d="M858.837 217.478C906.201 202.677 955.045 231.046 973.547 247.081C988.348 136.072 925.442 102.767 858.837 91.6663C805.552 82.7856 735.209 60.8303 709.306 54.6631C713.007 58.3634 735.246 84.2657 714.524 143.471C693.802 202.676 713.29 227.345 725.625 232.279C750.294 233.512 811.472 232.28 858.837 217.478Z" fill="#FF9531"/>
<path d="M905.423 174.705C955.747 177.665 969.562 222.408 972.029 247.077C963.395 238.442 940.946 225.028 905.423 219.107C869.9 213.187 812.915 232.275 750.009 232.275H724.107C724.107 232.275 705.605 219.107 705.605 202.672C705.605 186.237 705.605 173.065 709.306 173.07C713.006 173.074 855.098 171.744 905.423 174.705Z" fill="#F97526"/>
<path d="M626.986 109.795C627.582 112.289 627.9 114.891 627.9 117.568C627.9 135.961 612.99 150.871 594.597 150.871C576.204 150.871 561.294 135.961 561.294 117.568C561.294 108.729 564.738 100.696 570.357 94.7339L626.986 109.795Z" fill="#000944"/>
<path d="M495.313 67.0344C577.883 68.0589 653.856 101.609 681.521 118.256C649.626 128.492 643.226 125.943 495.669 67.176L495.313 67.0344Z" fill="black"/>
</svg>
