<svg width="172" height="106" viewBox="0 0 172 106" fill="none" xmlns="http://www.w3.org/2000/svg">
<path d="M26.4501 82C24.6786 82 22.9071 81.8325 21.1357 81.4976C19.3899 81.1627 17.7211 80.583 16.1294 79.7586C14.5633 78.9342 13.0999 77.8264 11.7392 76.4353C10.3786 75.0183 9.1976 73.2407 8.19634 71.1023C7.19507 68.9382 6.41203 66.3749 5.84722 63.4122C5.28241 60.4495 5 56.9844 5 53.0169C5 49.204 5.32092 45.8677 5.96275 43.0081C6.60458 40.1227 7.46464 37.6366 8.54293 35.5498C9.62121 33.4631 10.8792 31.7498 12.3169 30.4101C13.7546 29.0447 15.2694 27.9627 16.8611 27.1641C18.4528 26.3654 20.0702 25.8115 21.7134 25.5024C23.3565 25.1674 24.9353 25 26.4501 25C29.0175 25 31.251 25.1288 33.1509 25.3864C35.0507 25.644 36.6424 25.9275 37.9261 26.2366C39.4151 26.5973 40.686 27.0094 41.7386 27.4732V34.12C40.686 34.0427 39.5564 33.9654 38.3497 33.8882C37.3227 33.8366 36.1418 33.7851 34.8068 33.7335C33.4974 33.6563 32.1239 33.6176 30.6862 33.6176C29.3769 33.6176 28.0675 33.6691 26.7582 33.7722C25.4745 33.8752 24.2294 34.1458 23.0227 34.5837C21.8417 34.9959 20.7377 35.6142 19.7109 36.4386C18.6839 37.263 17.7853 38.3965 17.0152 39.8393C16.2706 41.2563 15.6801 43.0338 15.2437 45.1722C14.8329 47.3105 14.6275 49.8996 14.6275 52.9397C14.6275 56.1342 14.8458 58.865 15.2822 61.1322C15.7186 63.3993 16.322 65.2928 17.0921 66.8129C17.8624 68.3329 18.7609 69.5308 19.7879 70.4067C20.8148 71.2826 21.9316 71.9525 23.1382 72.4163C24.3449 72.8542 25.6029 73.1376 26.9123 73.2664C28.2216 73.3695 29.5309 73.421 30.8402 73.421C32.5347 73.421 34.0751 73.3952 35.4614 73.3437C36.8478 73.2922 38.0288 73.2407 39.0044 73.1891C40.1596 73.1118 41.1994 73.0346 42.1237 72.9572V79.604C40.9941 80.0677 39.659 80.4671 38.1186 80.802C36.7837 81.1111 35.1405 81.3817 33.1893 81.6135C31.2639 81.8712 29.0175 82 26.4501 82ZM49.2907 67.0061C49.2907 64.6327 49.5466 62.5338 50.0584 60.7095C50.5703 58.8675 51.3645 57.3177 52.4413 56.0602C53.5356 54.8026 54.9123 53.8462 56.5714 53.1908C58.2306 52.5354 60.2162 52.2078 62.5285 52.2078C64.8407 52.2078 66.8263 52.5354 68.4855 53.1908C70.1622 53.8462 71.539 54.8026 72.6157 56.0602C73.6924 57.3177 74.4866 58.8675 74.9985 60.7095C75.5103 62.5338 75.7663 64.6327 75.7663 67.0061C75.7663 69.3795 75.5103 71.496 74.9985 73.3558C74.4866 75.1978 73.6924 76.7476 72.6157 78.0052C71.539 79.2626 70.1622 80.2191 68.4855 80.8745C66.8263 81.5298 64.8407 81.8574 62.5285 81.8574C60.2162 81.8574 58.2306 81.5298 56.5714 80.8745C54.9123 80.2191 53.5356 79.2626 52.4413 78.0052C51.3645 76.7476 50.5703 75.1978 50.0584 73.3558C49.5466 71.496 49.2907 69.3795 49.2907 67.0061ZM62.5285 76.5174C63.9229 76.5174 65.0524 76.3137 65.9173 75.9063C66.7822 75.4812 67.4529 74.8701 67.9295 74.0731C68.406 73.2584 68.7238 72.2665 68.8826 71.0976C69.0591 69.9108 69.1474 68.547 69.1474 67.0061C69.1474 65.4828 69.0591 64.1367 68.8826 62.9678C68.7238 61.781 68.406 60.7892 67.9295 59.9922C67.4529 59.1774 66.7822 58.5663 65.9173 58.159C65.0524 57.734 63.9229 57.5214 62.5285 57.5214C61.1517 57.5214 60.0309 57.734 59.1661 58.159C58.3012 58.5663 57.6216 59.1774 57.1274 59.9922C56.6509 60.7892 56.3244 61.781 56.1478 62.9678C55.989 64.1367 55.9095 65.4828 55.9095 67.0061C55.9095 68.547 55.989 69.9108 56.1478 71.0976C56.3244 72.2665 56.6509 73.2584 57.1274 74.0731C57.6216 74.8701 58.3012 75.4812 59.1661 75.9063C60.0309 76.3137 61.1517 76.5174 62.5285 76.5174ZM81.6174 73.0901C81.6174 71.496 81.8468 70.1499 82.3057 69.0518C82.7823 67.9537 83.4178 67.0681 84.212 66.395C85.024 65.722 85.9682 65.2348 87.045 64.9338C88.1393 64.6327 89.313 64.4821 90.5661 64.4821C91.837 64.4821 92.9843 64.553 94.0081 64.6947C95.0494 64.8363 95.9496 64.9957 96.7085 65.1729C97.5734 65.3677 98.3589 65.5891 99.0648 65.8371V63.2334C99.0648 62.5781 99.0384 62.0291 98.9855 61.5862C98.9502 61.1257 98.8796 60.7272 98.7736 60.3907C98.6677 60.0541 98.5177 59.7708 98.3236 59.5405C98.1471 59.3103 97.9265 59.0889 97.6617 58.8763C97.0969 58.469 96.3202 58.1767 95.3318 57.9996C94.3434 57.8225 93.0549 57.734 91.4663 57.734C90.4603 57.734 89.4807 57.7694 88.5276 57.8402C87.5921 57.8933 86.7537 57.9642 86.0124 58.0527C85.1475 58.1412 84.3268 58.2387 83.5501 58.3449V53.9347C84.2562 53.6514 85.1298 53.3945 86.1712 53.1642C87.0537 52.9694 88.1569 52.7923 89.4807 52.6329C90.8044 52.4558 92.3754 52.3672 94.1933 52.3672C95.4112 52.3672 96.4879 52.4204 97.4234 52.5266C98.3765 52.6152 99.2153 52.7746 99.9389 53.0049C100.663 53.2351 101.297 53.5362 101.845 53.9082C102.409 54.2801 102.912 54.7406 103.354 55.2897C103.725 55.7501 104.033 56.2373 104.281 56.7509C104.528 57.2645 104.731 57.8667 104.89 58.5575C105.049 59.2483 105.154 60.0453 105.207 60.9487C105.278 61.8342 105.313 62.8703 105.313 64.0571V81.0339H99.9911L99.515 78.9616C98.7383 79.5107 97.8823 79.9977 96.9468 80.4228C96.1349 80.777 95.1817 81.1047 94.0874 81.4058C93.0108 81.7069 91.8194 81.8574 90.5132 81.8574C88.9247 81.8574 87.5656 81.6981 86.436 81.3792C85.3064 81.0605 84.3797 80.5556 83.6561 79.8649C82.95 79.1741 82.4294 78.2708 82.094 77.155C81.7762 76.0391 81.6174 74.6841 81.6174 73.0901ZM88.051 73.0901C88.051 73.8694 88.148 74.4893 88.3423 74.9498C88.5364 75.4104 88.8188 75.7646 89.1895 76.0125C89.5601 76.2428 90.0102 76.3933 90.5397 76.4642C91.0869 76.5351 91.7046 76.5705 92.393 76.5705C93.2932 76.5705 94.1404 76.4908 94.9347 76.3314C95.7466 76.1542 96.4615 75.9683 97.0792 75.7734C97.7852 75.5432 98.4471 75.2775 99.0648 74.9765V70.1145C98.5 70.0083 97.8912 69.9108 97.238 69.8223C96.6732 69.7337 96.029 69.6629 95.3054 69.6097C94.5993 69.5388 93.8492 69.5034 93.055 69.5034C92.1724 69.5034 91.4134 69.5477 90.778 69.6363C90.1603 69.7071 89.6484 69.8754 89.2424 70.1411C88.8365 70.389 88.5364 70.7521 88.3423 71.2303C88.148 71.6908 88.051 72.3108 88.051 73.0901ZM112.938 75.6406C113.714 75.8177 114.58 75.9771 115.533 76.1188C116.345 76.2428 117.298 76.3491 118.392 76.4376C119.504 76.5262 120.722 76.5705 122.046 76.5705C123.493 76.5705 124.641 76.5174 125.487 76.411C126.335 76.3048 126.97 76.1277 127.394 75.8797C127.835 75.6141 128.118 75.2598 128.241 74.817C128.364 74.3742 128.426 73.8163 128.426 73.1432C128.426 72.789 128.4 72.4702 128.347 72.1868C128.312 71.8857 128.205 71.62 128.029 71.3898C127.87 71.1418 127.624 70.9381 127.288 70.7787C126.97 70.6016 126.537 70.4688 125.99 70.3802L120.139 69.2909C118.798 69.0606 117.669 68.7507 116.751 68.361C115.833 67.9714 115.092 67.4578 114.527 66.8201C113.979 66.1648 113.582 65.3677 113.336 64.429C113.106 63.4725 112.991 62.3124 112.991 60.9487C112.991 58.0085 113.962 55.8211 115.904 54.3864C117.863 52.934 120.652 52.2078 124.27 52.2078C125.541 52.2078 126.706 52.2875 127.765 52.4469C128.841 52.5886 129.777 52.7568 130.57 52.9517C131.488 53.1642 132.327 53.4033 133.086 53.6691V58.1856C132.239 58.0439 131.356 57.9198 130.438 57.8136C129.645 57.7251 128.753 57.6365 127.765 57.548C126.794 57.4593 125.805 57.4151 124.799 57.4151C123.652 57.4151 122.698 57.4682 121.94 57.5745C121.181 57.663 120.581 57.8225 120.139 58.0527C119.698 58.283 119.389 58.584 119.212 58.956C119.036 59.3103 118.948 59.7619 118.948 60.311C118.948 60.736 118.984 61.1169 119.054 61.4534C119.125 61.7899 119.275 62.0911 119.504 62.3567C119.734 62.6224 120.051 62.8526 120.458 63.0474C120.863 63.2423 121.41 63.4017 122.099 63.5256L128.162 64.6681C129.344 64.8984 130.342 65.1994 131.153 65.5714C131.983 65.9434 132.654 66.4481 133.165 67.0858C133.677 67.7234 134.048 68.5382 134.277 69.53C134.507 70.5042 134.621 71.7085 134.621 73.1432C134.621 74.507 134.48 75.7292 134.198 76.8096C133.933 77.89 133.386 78.8021 132.557 79.5461C131.727 80.2899 130.554 80.8568 129.035 81.2464C127.517 81.6538 125.514 81.8574 123.026 81.8574C121.648 81.8574 120.351 81.76 119.134 81.5652C117.916 81.3881 116.847 81.1844 115.93 80.9541C114.853 80.6885 113.856 80.3874 112.938 80.0508V75.6406ZM143.65 58.2387H139.52V53.0049H143.65V47.0802L149.925 45.6722V53.0049H156.967V58.2387H149.925V73.3027C149.925 73.958 149.969 74.4982 150.057 74.9232C150.163 75.3483 150.34 75.6938 150.586 75.9594C150.852 76.2074 151.213 76.3845 151.672 76.4908C152.149 76.5793 152.757 76.6236 153.499 76.6236C154.188 76.6236 154.805 76.6147 155.352 76.597C155.917 76.5616 156.393 76.5262 156.781 76.4908C157.241 76.4553 157.647 76.411 158 76.3579V80.5556C157.382 80.8037 156.72 81.025 156.014 81.2198C155.396 81.3792 154.673 81.521 153.843 81.6449C153.014 81.7866 152.105 81.8574 151.116 81.8574C149.74 81.8574 148.574 81.7246 147.621 81.459C146.685 81.1932 145.918 80.7948 145.318 80.2634C144.735 79.7143 144.311 79.0324 144.047 78.2177C143.782 77.3852 143.65 76.4199 143.65 75.3218V58.2387Z" fill="#2B2B2B"/>
<path d="M63.3789 52.9376V49.1461L65.1734 48.8301V51.4631H66.7568C67.6012 51.4631 68.0234 52.4461 68.129 52.9376H63.3789Z" fill="#FA7325"/>
<path d="M61.9003 29.8719C64.1804 26.5858 67.143 28.3622 68.3394 29.6612C68.7616 29.8719 69.2542 32.9612 69.395 34.6113L69.6061 35.4539L70.4506 36.5071C70.4506 36.5071 71.4006 37.9816 71.8228 39.1402C73.7651 47.5659 65.3134 49.3915 60.8447 49.251H49.3389C52.963 45.3892 60.338 37.6446 60.8447 37.5604C61.3515 37.4761 61.5484 36.8933 61.5837 36.6124C61.4781 35.3486 61.267 32.6944 61.267 32.1889C61.267 31.5569 61.4781 30.6091 61.9003 29.8719Z" fill="#40446A"/>
<path d="M57.8896 52.9372V49.3563V49.251H59.6842V51.4628H61.3731C62.3865 51.4628 62.7102 52.4458 62.7454 52.9372H57.8896Z" fill="#F87426"/>
<path d="M51.6281 40.3653C52.6487 38.1927 57.1503 37.7714 61.085 37.5215C62.8504 37.5215 65.8063 37.9821 65.8062 41.6683C65.8062 46.6586 60.5282 47.0728 55.5338 47.5271C51.6281 47.8822 49.4465 49.0718 48.0391 50.0548C48.7076 47.9484 50.3613 43.0615 51.6281 40.3653Z" fill="#050E1F"/>
<path d="M60.5936 44.6172C64.647 44.1958 65.736 41.6681 65.7009 40.4043C66.5452 44.3644 63.5193 46.1619 61.9007 46.6182L58.8396 47.2502L53.1393 47.8821C52.6468 47.9523 51.2604 48.472 50.5004 48.7247C49.5504 49.0406 48.3892 49.8832 48.0726 50.0939C47.8614 50.0939 48.1781 49.7779 48.1781 49.6726C49.276 46.8079 51.2341 45.6353 52.5711 45.4598C53.5563 45.3544 56.54 45.0384 60.5936 44.6172Z" fill="#01176C"/>
<path d="M66.5449 31.3032C66.5553 31.6761 66.4344 32.0541 66.1752 32.3623C65.6131 33.0308 64.6144 33.118 63.9445 32.5572C63.3365 32.0482 63.2084 31.1801 63.6103 30.5244L66.5449 31.3032Z" fill="#DEE2FA"/>
<path d="M72.5002 34.1899C73.8513 33.7685 75.2447 34.576 75.7725 35.0324C76.1947 31.8728 74.4002 30.9249 72.5002 30.6089C70.9801 30.3561 68.9735 29.7312 68.2346 29.5557C68.3401 29.661 68.9745 30.3983 68.3834 32.0833C67.7923 33.7685 68.3482 34.4707 68.7001 34.6111C69.4038 34.6462 71.149 34.6111 72.5002 34.1899Z" fill="#FF9531"/>
<path d="M73.829 32.9729C75.2646 33.0572 75.6587 34.3306 75.7291 35.0328C75.4827 34.7871 74.8424 34.4053 73.829 34.2367C72.8156 34.0682 71.1901 34.6115 69.3956 34.6115H68.6567C68.6567 34.6115 68.1289 34.2367 68.1289 33.7689C68.1289 33.3012 68.1289 32.9262 68.2344 32.9263C68.34 32.9265 72.3934 32.8886 73.829 32.9729Z" fill="#F97526"/>
<path d="M65.8854 31.1249C65.9024 31.1959 65.9118 31.27 65.9118 31.3462C65.9118 31.8697 65.4864 32.2941 64.9617 32.2941C64.437 32.2941 64.0117 31.8697 64.0117 31.3462C64.0117 31.0946 64.1101 30.866 64.2704 30.6963L65.8854 31.1249Z" fill="#000944"/>
<path d="M62.1299 29.9082C64.4853 29.9374 66.6526 30.8923 67.4418 31.3661C66.5319 31.6574 66.3494 31.5849 62.1401 29.9122L62.1299 29.9082Z" fill="black"/>
</svg>
